<svg width="80" height="80" viewBox="0 0 80 80" fill="none" xmlns="http://www.w3.org/2000/svg">
<circle cx="40" cy="40" r="38" stroke="#513393" stroke-width="4"/>
<circle cx="40" cy="40" r="30" stroke="#513393" stroke-width="3"/>
<path d="M40 81C17.9 81 0 63.1 0 41C0 18.9 17.9 1 40 1C62.1 1 80 18.9 80 41C80 63.1 62.1 81 40 81Z" fill="white"/>
<path d="M70 41C70 24.4 56.6 11 40 11C23.4 11 10 24.4 10 41C10 57.6 23.4 71 40 71C48.8 71 55.4 66.3 55.4 58.3C55.4 51.5 50.2 47.2 43.5 47.2C39.2 47.2 35.4 48.1 33.2 47.6C32 47.4 31.5 46.6 31.5 45.8C31.5 45 32.2 44.2 33.2 44.2C33.5 44.2 33.9 44.3 34.3 44.4C36 45 37.9 45.3 40 45.3C47.5 45.3 53.7 40.6 53.7 34.8C53.7 32.6 52.8 30.6 51.4 28.9C54.8 29.2 57.2 28.4 58.6 27C61.5 30.9 63.2 35.7 63.2 41C63.2 44.9 62.2 48.6 60.5 51.8L57 49.9L60 59.7L70 56.7L66.5 54.8C68.7 50.6 70 45.9 70 41ZM40 43.5C37.1 43.5 34.7 41.1 34.7 38.2C34.7 35.3 37.1 32.9 40 32.9C42.9 32.9 45.3 35.3 45.3 38.2C45.3 41.1 42.9 43.5 40 43.5ZM50.4 27.8C49.2 28.3 46.8 28.4 45.8 28C43.9 27.4 41.9 27 40 27C32.4 27 26.2 31.7 26.2 37.5C26.2 39.2 26.8 40.9 27.7 42.3C27.1 42.8 24.8 44.9 24.8 48.8C24.8 52.2 27.3 55.7 31.1 56.7C34.9 57.8 39.6 56.5 43.2 56.5C46.8 56.5 48.9 58.3 48.9 61C48.9 64.9 44.8 67 40 67C27.2 67 16.6 56.4 16.6 43.6C16.6 30.8 27.2 20.2 40 20.2C45.1 20.2 49.8 21.8 53.6 24.6C52.6 26.2 51.7 26.9 50.4 27.8Z" fill="#513393"/>
</svg>
