<svg width="185" height="32" viewBox="0 0 185 32" fill="none" xmlns="http://www.w3.org/2000/svg">
<g clip-path="url(#clip0_1_2800)">
<path d="M15.4974 31.521C6.9519 31.521 0 24.5612 0 16.0059C0 7.45059 6.9519 0.490723 15.4974 0.490723C24.0429 0.490723 30.9948 7.45059 30.9948 16.0059C30.9948 24.5612 24.0429 31.521 15.4974 31.521Z" fill="white"/>
<path d="M27.1233 16.0059C27.1233 9.57667 21.9181 4.36548 15.4962 4.36548C9.07437 4.36548 3.86914 9.57667 3.86914 16.0059C3.86914 22.4351 9.07437 27.6463 15.4962 27.6463C18.9212 27.6394 21.4542 25.8361 21.4542 22.7312C21.4542 20.0652 19.4431 18.399 16.8474 18.399C15.1796 18.399 13.7113 18.7636 12.8507 18.5848C12.3961 18.4907 12.2059 18.1981 12.2059 17.88C12.2059 17.5618 12.49 17.2332 12.8507 17.2332C12.9725 17.2332 13.1418 17.2739 13.2949 17.3157C13.963 17.5467 14.7041 17.6756 15.4858 17.6756C18.434 17.6756 20.8232 15.8468 20.8232 13.5896C20.8232 12.7536 20.495 11.9768 19.9313 11.3288C21.2558 11.4542 22.1883 11.1465 22.7346 10.5903C23.8654 12.101 24.5346 13.9751 24.5346 16.0036C24.5346 17.534 24.1507 18.9749 23.478 20.2394L22.1315 19.5242L23.3018 23.3431L27.1164 22.1704L25.7698 21.4551C26.6327 19.8284 27.1233 17.9729 27.1233 16.0024V16.0059ZM15.4835 15.6413C14.3527 15.6413 13.4376 14.7217 13.4364 13.5896C13.4364 12.4586 14.3527 11.5402 15.4835 11.5402C16.6143 11.5402 17.5329 12.4575 17.5329 13.5896C17.5329 14.7217 16.6166 15.6413 15.4835 15.6413ZM19.5173 9.79497C19.0557 10.0017 18.1325 10.0179 17.759 9.8925C17.0713 9.64518 16.3 9.50468 15.4858 9.50468C12.5376 9.50468 10.1484 11.3335 10.1484 13.5907C10.1484 14.2642 10.3629 14.8993 10.7399 15.459C10.5102 15.6436 9.61252 16.4588 9.61252 17.9694C9.61252 19.3163 10.5949 20.6679 12.0702 21.065C13.5837 21.4726 15.393 20.9849 16.7082 20.9849C18.0235 20.9849 18.8585 21.685 18.8585 22.7312C18.8585 24.2535 17.2696 25.0489 15.4962 25.0489C10.5125 25.0547 6.459 20.9953 6.459 16.0071C6.459 11.0188 10.5137 6.9583 15.4974 6.9583C17.4644 6.9583 19.2842 7.59229 20.7699 8.66402C20.4022 9.29336 20.0415 9.56158 19.5185 9.79613L19.5173 9.79497Z" fill="#513393"/>
<path d="M160.815 12.6351C160.52 12.5805 160.199 12.5515 159.85 12.5515C158.233 12.5515 156.954 13.9251 156.375 15.1083L155.529 12.8406H152.466V23.6149H156.376L156.371 18.9865C156.371 17.4782 156.945 15.6436 159.287 15.6436C159.93 15.6436 160.43 15.8062 160.817 16.0709V12.634L160.815 12.6351Z" fill="white"/>
<path d="M38.7412 16.006C38.7412 11.3196 42.1916 8.10559 46.5838 8.10559C50.976 8.10559 53.654 10.5451 53.9916 14.3386L50.0099 14.4837C49.793 12.8163 48.6344 11.7539 46.6801 11.7539C44.2909 11.7539 42.9641 13.4213 42.9641 16.006C42.9641 18.5907 44.364 20.4264 46.9944 20.4264C48.3212 20.4264 49.6249 19.8714 50.228 18.6627H46.8738V15.7157H54.1133V23.6161H51.1697V19.2003C51.1697 20.6355 49.8406 23.9064 46.1257 23.9064C41.9272 23.9064 38.7412 20.7179 38.7412 16.006Z" fill="white"/>
<path d="M86.9025 21.3088C86.3957 22.5652 85.1651 23.9063 83.379 23.9063C80.1942 23.9063 78.6006 21.418 78.6006 18.2295C78.6006 15.041 80.193 12.5527 83.379 12.5527C85.1651 12.5527 86.3957 13.8508 86.9025 15.1304V8.39697H90.8122V23.6172H87.7492L86.9037 21.3088H86.9025ZM86.9025 18.1564C86.9025 16.6097 86.0582 15.596 84.7545 15.596C83.2097 15.596 82.5347 16.6829 82.5347 18.2295C82.5347 19.7761 83.2108 20.8874 84.7545 20.8874C86.0582 20.8874 86.9025 19.8725 86.9025 18.3027V18.1575V18.1564Z" fill="white"/>
<path d="M95.8302 23.616L91.8242 12.8418H95.9265L98.267 19.5334H98.3632L100.704 12.8418H104.493L100.487 23.616H95.829H95.8302Z" fill="white"/>
<path d="M115.98 20.0652C115.425 22.5292 113.446 23.9063 110.599 23.9063C107.148 23.9063 104.687 21.829 104.687 18.3979C104.687 14.9667 107.197 12.5515 110.551 12.5515C114.146 12.5515 116.053 15.0155 116.053 17.9392V19.026H108.5C108.597 20.3544 109.562 20.9825 110.745 20.9825C111.676 20.9825 112.31 20.7039 112.697 20.0641H115.981L115.98 20.0652ZM112.337 17.592C112.337 16.6376 111.98 15.3545 110.503 15.3545C108.937 15.3545 108.549 16.583 108.549 17.592H112.338H112.337Z" fill="white"/>
<path d="M169.506 20.0699L172.794 20.0652C172.238 22.5292 170.26 23.9063 167.413 23.9063C163.962 23.9063 161.501 21.829 161.501 18.3979C161.501 14.9667 164.011 12.5515 167.365 12.5515C170.96 12.5515 172.867 15.0155 172.867 17.9392V19.026H165.314C165.411 20.3544 166.376 20.9825 167.559 20.9825C168.488 20.9825 169.121 20.705 169.507 20.0687M169.15 17.592C169.15 16.6376 168.793 15.3545 167.316 15.3545C165.749 15.3545 165.362 16.583 165.362 17.592H169.151H169.15Z" fill="white"/>
<path d="M121.555 23.616H117.646V12.8417H120.709L121.554 15.1094C122.133 13.9262 123.412 12.5526 125.029 12.5526C127.972 12.5526 128.914 14.6055 128.914 16.8523V23.6171H125.004V17.8915C125.004 16.418 124.594 15.6447 123.412 15.6447C122.085 15.6447 121.554 16.7072 121.554 18.3258V23.6171L121.555 23.616Z" fill="white"/>
<path d="M131.303 15.5472H129.856V12.8417H131.303V11.7096L135.164 9.87036V12.8417H137.964V15.5472H135.164V20.0849C135.164 21.0034 135.599 21.3656 136.395 21.3656C136.877 21.3656 137.409 21.2693 138.06 21.0034V22.9402C137.24 23.5439 136.299 23.9062 134.827 23.9062C133.018 23.9062 131.303 23.1573 131.303 20.6202V15.5472Z" fill="white"/>
<path d="M146.651 12.8418H150.561V23.616H147.498L146.652 21.4772C146.073 22.6848 144.89 23.9051 143.274 23.9051C140.33 23.9051 139.437 21.8755 139.437 19.6287V12.8395H143.347V18.5894C143.347 20.0385 143.757 20.8362 144.939 20.8362C146.121 20.8362 146.652 19.7738 146.652 18.1308V12.8395L146.651 12.8418Z" fill="white"/>
<path d="M177.057 20.0652C177.202 20.9593 177.925 21.4667 179.108 21.4667C179.977 21.4667 180.435 21.1532 180.435 20.7177C180.435 20.3067 180.194 20.0176 179.446 19.8968L177.853 19.6553C175.247 19.2443 173.872 18.399 173.872 16.2009C173.872 14.0029 175.73 12.5526 178.746 12.5526C181.763 12.5526 183.693 13.9297 183.91 16.1765L183.92 16.2729H180.701C180.556 15.4996 179.881 15.0166 178.673 15.0166C177.925 15.0166 177.49 15.3068 177.49 15.7899C177.49 16.1521 177.78 16.3461 178.142 16.3937L180.241 16.7559C182.655 17.1426 184.054 18.2294 184.054 20.3311C184.054 22.6023 182.123 23.9062 179.058 23.9062C175.994 23.9062 173.871 22.723 173.653 20.1128L173.648 20.064H177.054L177.057 20.0652Z" fill="white"/>
<path d="M72.3026 8.39697L78.3591 23.6172H73.9913L72.857 20.6702H66.9211L65.7868 23.6172H61.6602L67.7167 8.39697H72.3014H72.3026ZM68.1029 17.6013H71.674L69.9366 13.1077H69.8403L68.1029 17.6013Z" fill="white"/>
<path d="M61.3516 20.6679H68.1028V17.6013H62.5531L61.3516 20.6679Z" fill="white"/>
</g>
<defs>
<clipPath id="clip0_1_2800">
<rect width="185" height="32" fill="white"/>
</clipPath>
</defs>
</svg>
